<?xml version="1.0" standalone="no"?>
<!DOCTYPE svg PUBLIC "-//W3C//DTD SVG 20010904//EN"
 "http://www.w3.org/TR/2001/REC-SVG-20010904/DTD/svg10.dtd">
<svg version="1.0" xmlns="http://www.w3.org/2000/svg"
 width="195.000000pt" height="195.000000pt" viewBox="0 0 195.000000 195.000000"
 preserveAspectRatio="xMidYMid meet">
<metadata>
Created by potrace 1.14, written by Peter Selinger 2001-2017
</metadata>
<g transform="translate(0.000000,195.000000) scale(0.100000,-0.100000)"
fill="#000000" stroke="none">
<path d="M1220 1932 c-15 -12 -24 -33 -27 -67 -5 -38 -18 -67 -54 -120 -26
-38 -53 -89 -60 -112 l-12 -42 -90 2 -90 2 -13 52 c-17 67 -45 121 -78 152
-14 14 -26 35 -26 48 0 38 -42 73 -89 73 -32 0 -44 -6 -65 -31 -56 -67 -19
-142 68 -138 58 3 69 -7 101 -96 30 -81 29 -75 6 -75 -27 0 -151 -38 -183 -56
-25 -14 -28 -13 -41 8 -138 227 -148 239 -218 261 -64 21 -83 21 -145 0 -125
-42 -207 -168 -173 -270 7 -21 40 -85 74 -143 34 -58 71 -122 83 -142 l21 -38
-38 -82 c-106 -227 -90 -494 41 -696 15 -24 28 -47 28 -52 0 -13 169 -180 182
-180 6 0 19 -6 27 -14 9 -8 42 -28 75 -45 189 -102 408 -135 611 -92 95 21
232 71 277 102 14 11 30 19 36 19 5 0 15 7 22 15 7 8 20 15 29 15 36 0 188
187 250 308 50 98 73 286 52 430 -12 79 -53 198 -85 244 -13 18 -13 24 -2 37
33 39 169 245 182 276 39 93 -10 212 -114 272 -39 23 -58 28 -122 28 -106 0
-138 -22 -231 -162 -40 -60 -74 -110 -76 -112 -2 -3 -18 2 -36 11 -17 8 -63
23 -100 34 -66 18 -68 20 -63 47 3 16 27 59 53 98 42 60 52 69 79 69 80 0 115
96 56 153 -34 32 -88 36 -122 9z m-860 -203 c29 -17 53 -47 104 -133 74 -125
75 -109 -10 -166 -21 -14 -75 -62 -120 -107 l-83 -82 -86 147 c-80 136 -86
150 -82 193 10 126 167 210 277 148z m1362 -5 c86 -34 133 -103 125 -184 -3
-36 -20 -69 -89 -170 l-84 -125 -85 85 c-90 90 -93 93 -151 128 -43 27 -48 14
54 158 85 122 135 144 230 108z m-682 -194 c156 -19 267 -57 380 -129 66 -42
199 -173 225 -222 80 -151 105 -227 105 -321 l0 -68 -785 0 -785 0 0 66 c0 79
44 222 93 299 138 221 358 351 637 378 19 2 37 5 40 5 3 1 44 -3 90 -8z m690
-910 c0 -5 -5 -21 -12 -35 l-11 -25 -743 0 -742 0 -11 31 c-6 18 -11 34 -11
35 0 2 344 4 765 4 478 0 765 -4 765 -10z m-90 -189 c0 -14 -69 -100 -90 -111
-12 -6 -223 -10 -594 -10 l-575 0 -45 56 c-26 31 -46 60 -46 65 0 5 277 9 675
9 371 0 675 -4 675 -9z m-260 -246 c0 -7 -74 -39 -169 -72 -70 -25 -88 -27
-241 -27 -154 0 -170 1 -249 28 -83 27 -161 62 -161 71 0 3 184 5 410 5 226 0
410 -2 410 -5z"/>
<path d="M761 1283 c-45 -22 -66 -72 -51 -119 15 -45 45 -64 101 -64 40 0 51
4 73 31 45 53 30 121 -34 154 -36 19 -47 19 -89 -2z m92 -14 c22 -12 37 -28
37 -41 0 -4 -11 4 -25 17 -28 29 -75 34 -75 9 0 -10 -6 -14 -15 -10 -9 3 -21
-4 -31 -19 -20 -31 -11 -75 16 -82 11 -3 20 -10 20 -15 0 -6 18 -8 39 -6 22 2
37 0 35 -4 -3 -5 -23 -8 -45 -8 -54 0 -89 34 -89 88 0 66 71 103 133 71z m44
-91 c-3 -7 -5 -2 -5 12 0 14 2 19 5 13 2 -7 2 -19 0 -25z"/>
<path d="M1123 1278 c-28 -13 -56 -73 -49 -102 8 -34 52 -76 78 -75 22 0 22 1
3 9 -16 7 -13 9 18 9 20 1 37 6 37 11 0 6 7 10 15 10 18 0 29 41 21 75 -4 16
-13 25 -27 25 -11 0 -22 7 -25 15 -8 19 -35 19 -60 0 -27 -20 -42 -19 -21 3
27 26 100 23 129 -5 44 -44 16 -134 -46 -146 -17 -4 -16 -5 6 -6 32 -1 78 48
78 84 0 79 -84 128 -157 93z"/>
<path d="M595 1031 c-9 -15 21 -37 69 -51 25 -7 46 -16 46 -20 0 -4 -7 -22
-17 -40 -14 -30 -14 -36 -2 -59 10 -17 24 -27 44 -29 26 -2 34 4 60 48 32 55
31 55 122 39 81 -14 191 1 317 43 94 31 123 48 112 67 -10 15 -37 14 -82 -5
-178 -75 -364 -75 -573 0 -49 18 -87 21 -96 7z m193 -96 c-3 -29 -21 -62 -38
-73 -30 -19 -45 16 -26 62 13 30 18 34 40 28 14 -4 25 -11 24 -17z"/>
</g>
</svg>
